<?xml version="1.0" standalone="no"?>
<!DOCTYPE svg PUBLIC "-//W3C//DTD SVG 20010904//EN"
 "http://www.w3.org/TR/2001/REC-SVG-20010904/DTD/svg10.dtd">
<svg version="1.0" xmlns="http://www.w3.org/2000/svg"
 width="1024.000000pt" height="1024.000000pt" viewBox="0 0 1024.000000 1024.000000"
 preserveAspectRatio="xMidYMid meet">
<metadata>
Created by potrace 1.11, written by Peter Selinger 2001-2013
</metadata>
<g transform="translate(0.000000,1024.000000) scale(0.100000,-0.100000)"
fill="#000000" stroke="none">
<path d="M3108 9415 c-2 -1 -39 -5 -83 -8 -88 -6 -246 -37 -346 -67 -474 -142
-864 -450 -1109 -876 -135 -237 -212 -476 -246 -764 -4 -30 -7 -719 -8 -1530
l-2 -1475 -66 -90 c-91 -125 -171 -258 -241 -404 -53 -111 -121 -283 -132
-336 -3 -11 -9 -31 -14 -45 -15 -40 -54 -225 -66 -315 -22 -165 -27 -448 -10
-585 19 -160 26 -201 47 -290 85 -364 252 -703 489 -996 122 -152 333 -351
469 -444 19 -13 37 -27 40 -31 3 -3 59 -39 125 -79 171 -103 345 -184 505
-236 60 -20 256 -71 300 -78 19 -3 62 -10 95 -16 170 -29 524 -31 695 -4 72
11 221 40 248 48 9 3 29 7 44 10 15 2 81 23 147 45 441 150 835 426 1130 791
292 363 487 822 527 1240 3 36 8 76 10 90 2 14 4 95 5 180 1 544 -149 1009
-467 1446 l-73 101 -4 1519 c-1 835 -6 1529 -9 1541 -4 11 -10 43 -13 70 -11
79 -53 236 -90 338 -34 94 -135 306 -159 335 -7 8 -15 22 -19 31 -13 40 -193
262 -273 339 -128 122 -198 178 -325 257 -195 122 -474 230 -667 259 -20 3
-44 7 -52 9 -45 12 -391 29 -402 20z m327 -1109 c86 -23 210 -87 285 -147 171
-138 274 -317 306 -532 3 -27 7 -797 7 -1711 l0 -1662 38 -29 c41 -30 170
-159 212 -210 79 -97 184 -294 226 -424 105 -323 84 -684 -56 -991 -138 -302
-435 -581 -745 -700 -63 -24 -193 -59 -251 -66 -23 -3 -61 -10 -85 -14 -69
-12 -299 -4 -401 14 -269 49 -495 167 -703 370 -218 212 -345 455 -393 751
-23 138 -9 433 26 550 6 22 18 63 26 90 19 63 95 225 136 290 77 123 174 234
291 332 l49 41 2 1689 c1 928 5 1699 8 1713 4 14 12 48 18 75 6 28 16 56 22
63 5 6 7 12 4 12 -12 0 58 128 104 190 116 155 295 275 460 309 30 6 63 13 74
15 44 10 282 -3 340 -18z"/>
<path d="M3145 4518 c-91 -29 -140 -72 -176 -152 -19 -44 -21 -68 -23 -240
l-1 -191 -99 -49 c-158 -78 -299 -229 -376 -401 -68 -151 -84 -365 -41 -529
73 -277 299 -502 579 -578 120 -32 317 -30 435 6 307 92 518 326 577 638 12
59 14 203 5 263 -39 256 -218 498 -453 610 l-82 40 0 179 c0 201 -7 238 -59
310 -57 80 -191 124 -286 94z"/>
<path d="M7680 9409 c-130 -12 -260 -38 -367 -74 -511 -171 -922 -610 -1052
-1123 -18 -69 -34 -153 -46 -245 -14 -105 0 -427 21 -499 3 -9 7 -27 9 -40 28
-149 105 -344 188 -478 141 -225 352 -436 567 -567 181 -109 403 -186 605
-209 33 -3 63 -8 67 -11 4 -2 74 -4 155 -4 139 -1 255 13 435 50 59 13 226 75
301 113 271 136 512 359 676 627 148 240 221 505 226 813 1 114 -2 166 -20
308 -22 165 -114 410 -218 580 -120 196 -346 415 -558 544 -86 52 -270 136
-297 136 -10 0 -22 4 -28 9 -12 12 -197 53 -299 66 -69 9 -287 11 -365 4z
m333 -1107 c153 -55 286 -190 337 -342 68 -197 17 -404 -134 -553 -116 -115
-241 -165 -396 -162 -171 5 -328 92 -430 240 -133 194 -126 440 18 630 43 57
138 136 197 165 114 55 292 64 408 22z"/>
</g>
</svg>
